<svg width="180" height="52" viewBox="0 0 180 52" fill="none" xmlns="http://www.w3.org/2000/svg">
<path d="M173.095 52H6.6575C2.99754 52 0 49.0734 0 45.5V6.5C0 2.92663 2.99754 2.74817e-06 6.6575 2.74817e-06H173.095C176.755 2.74817e-06 179.753 2.92663 179.753 6.5V45.5C179.753 49.0734 176.755 52 173.095 52Z" fill="black"/>
<path d="M173.095 1.04162C176.177 1.04162 178.686 3.4905 178.686 6.5V45.5C178.686 48.5095 176.177 50.9584 173.095 50.9584H6.6575C3.57508 50.9584 1.06686 48.5095 1.06686 45.5V6.5C1.06686 3.4905 3.57508 1.04162 6.6575 1.04162H173.095ZM173.095 2.74817e-06H6.6575C2.99754 2.74817e-06 0 2.92663 0 6.5V45.5C0 49.0734 2.99754 52 6.6575 52H173.095C176.755 52 179.753 49.0734 179.753 45.5V6.5C179.753 2.92663 176.755 2.74817e-06 173.095 2.74817e-06Z" fill="#A6A6A6"/>
<path d="M63.1361 13.3167C63.1361 14.4022 62.8032 15.2716 62.1475 15.9199C61.3935 16.6886 60.4115 17.0753 59.2082 17.0753C58.0581 17.0753 57.0761 16.6821 56.2705 15.9069C55.4633 15.1204 55.0605 14.1552 55.0605 12.9998C55.0605 11.8444 55.4633 10.8792 56.2705 10.0992C57.0761 9.31757 58.0581 8.92432 59.2082 8.92432C59.7807 8.92432 60.3266 9.03969 60.8476 9.25419C61.3669 9.47032 61.7896 9.76282 62.0959 10.1236L61.4002 10.8093C60.8659 10.1934 60.1386 9.88957 59.2082 9.88957C58.3693 9.88957 57.642 10.1756 57.0245 10.7524C56.4137 11.3309 56.1074 12.0801 56.1074 12.9998C56.1074 13.9196 56.4137 14.6752 57.0245 15.2537C57.642 15.8241 58.3693 16.1166 59.2082 16.1166C60.0986 16.1166 60.8476 15.8241 61.4384 15.2472C61.8279 14.8653 62.0493 14.3388 62.1075 13.6661H59.2082V12.7268H63.0762C63.1228 12.9299 63.1361 13.1266 63.1361 13.3167Z" fill="white" stroke="white" stroke-width="0.16" stroke-miterlimit="10"/>
<path d="M69.2732 10.0602H65.6399V12.5302H68.9154V13.4694H65.6399V15.9394H69.2732V16.8965H64.6113V9.10303H69.2732V10.0602Z" fill="white" stroke="white" stroke-width="0.16" stroke-miterlimit="10"/>
<path d="M73.6039 16.8965H72.5753V10.0602H70.3467V9.10303H75.8341V10.0602H73.6039V16.8965Z" fill="white" stroke="white" stroke-width="0.16" stroke-miterlimit="10"/>
<path d="M79.8047 16.8965V9.10303H80.8316V16.8965H79.8047Z" fill="white" stroke="white" stroke-width="0.16" stroke-miterlimit="10"/>
<path d="M85.3841 16.8965H84.3639V10.0602H82.127V9.10303H87.621V10.0602H85.3841V16.8965Z" fill="white" stroke="white" stroke-width="0.16" stroke-miterlimit="10"/>
<path d="M98.0099 15.8939C97.2227 16.6821 96.2474 17.0753 95.084 17.0753C93.9139 17.0753 92.9386 16.6821 92.1513 15.8939C91.3657 15.1074 90.9746 14.1422 90.9746 12.9998C90.9746 11.8574 91.3657 10.8922 92.1513 10.1057C92.9386 9.31757 93.9139 8.92432 95.084 8.92432C96.2407 8.92432 97.216 9.31757 98.0033 10.1122C98.7955 10.9052 99.1866 11.8639 99.1866 12.9998C99.1866 14.1422 98.7955 15.1074 98.0099 15.8939ZM92.9119 15.2407C93.5045 15.8241 94.2251 16.1166 95.084 16.1166C95.9361 16.1166 96.6634 15.8241 97.2493 15.2407C97.8402 14.6573 98.1397 13.9082 98.1397 12.9998C98.1397 12.0914 97.8402 11.3423 97.2493 10.7589C96.6634 10.1756 95.9361 9.88307 95.084 9.88307C94.2251 9.88307 93.5045 10.1756 92.9119 10.7589C92.3211 11.3423 92.0215 12.0914 92.0215 12.9998C92.0215 13.9082 92.3211 14.6573 92.9119 15.2407Z" fill="white" stroke="white" stroke-width="0.16" stroke-miterlimit="10"/>
<path d="M100.63 16.8965V9.10303H101.878L105.759 15.1643H105.804L105.759 13.666V9.10303H106.786V16.8965H105.715L101.65 10.5363H101.605L101.65 12.041V16.8965H100.63Z" fill="white" stroke="white" stroke-width="0.16" stroke-miterlimit="10"/>
<path d="M90.7215 28.2783C87.5942 28.2783 85.0394 30.602 85.0394 33.8082C85.0394 36.9883 87.5942 39.3364 90.7215 39.3364C93.8555 39.3364 96.4104 36.9883 96.4104 33.8082C96.4104 30.602 93.8555 28.2783 90.7215 28.2783ZM90.7215 37.1589C89.0056 37.1589 87.5293 35.776 87.5293 33.8082C87.5293 31.8143 89.0056 30.4558 90.7215 30.4558C92.4375 30.4558 93.9205 31.8143 93.9205 33.8082C93.9205 35.776 92.4375 37.1589 90.7215 37.1589ZM78.3236 28.2783C75.1896 28.2783 72.6414 30.602 72.6414 33.8082C72.6414 36.9883 75.1896 39.3364 78.3236 39.3364C81.4559 39.3364 84.0058 36.9883 84.0058 33.8082C84.0058 30.602 81.4559 28.2783 78.3236 28.2783ZM78.3236 37.1589C76.606 37.1589 75.1247 35.776 75.1247 33.8082C75.1247 31.8143 76.606 30.4558 78.3236 30.4558C80.0396 30.4558 81.5159 31.8143 81.5159 33.8082C81.5159 35.776 80.0396 37.1589 78.3236 37.1589ZM63.5706 29.9732V32.3229H69.3177C69.1496 33.6359 68.7002 34.6012 68.0111 35.2739C67.1723 36.0864 65.8657 36.9883 63.5706 36.9883C60.0338 36.9883 57.2643 34.2014 57.2643 30.7483C57.2643 27.2952 60.0338 24.5083 63.5706 24.5083C65.4829 24.5083 66.8744 25.2379 67.9013 26.1837L69.5973 24.5278C68.1609 23.1888 66.2502 22.1602 63.5706 22.1602C58.7206 22.1602 54.6445 26.013 54.6445 30.7483C54.6445 35.4835 58.7206 39.3364 63.5706 39.3364C66.192 39.3364 68.1609 38.4979 69.7088 36.9249C71.2949 35.3763 71.7893 33.1988 71.7893 31.4405C71.7893 30.8945 71.7427 30.3924 71.6594 29.9732H63.5706ZM123.898 31.7948C123.43 30.5582 121.987 28.2783 119.048 28.2783C116.135 28.2783 113.71 30.5192 113.71 33.8082C113.71 36.9054 116.11 39.3364 119.327 39.3364C121.929 39.3364 123.43 37.7878 124.047 36.8859L122.117 35.6298C121.473 36.5495 120.595 37.1589 119.327 37.1589C118.067 37.1589 117.163 36.595 116.584 35.4835L124.159 32.4237L123.898 31.7948ZM116.175 33.6359C116.11 31.5039 117.871 30.4119 119.132 30.4119C120.121 30.4119 120.96 30.8945 121.24 31.5852L116.175 33.6359ZM110.018 39H112.508V22.75H110.018V39ZM105.941 29.51H105.857C105.298 28.8633 104.231 28.2783 102.88 28.2783C100.044 28.2783 97.4506 30.7093 97.4506 33.826C97.4506 36.9249 100.044 39.3364 102.88 39.3364C104.231 39.3364 105.298 38.7465 105.857 38.0803H105.941V38.8733C105.941 40.9874 104.784 42.1233 102.918 42.1233C101.397 42.1233 100.453 41.0508 100.064 40.1489L97.8983 41.0313C98.5225 42.497 100.175 44.3008 102.918 44.3008C105.837 44.3008 108.301 42.6238 108.301 38.5434V28.6147H105.941V29.51ZM103.093 37.1589C101.377 37.1589 99.9405 35.7565 99.9405 33.826C99.9405 31.8777 101.377 30.4558 103.093 30.4558C104.784 30.4558 106.117 31.8777 106.117 33.826C106.117 35.7565 104.784 37.1589 103.093 37.1589ZM135.555 22.75H129.6V39H132.083V32.8429H135.555C138.313 32.8429 141.017 30.8945 141.017 27.7957C141.017 24.6984 138.306 22.75 135.555 22.75ZM135.62 30.5825H132.083V25.0104H135.62C137.474 25.0104 138.532 26.5135 138.532 27.7957C138.532 29.0534 137.474 30.5825 135.62 30.5825ZM150.97 28.2474C149.176 28.2474 147.31 29.0209 146.543 30.7353L148.747 31.6372C149.221 30.7353 150.093 30.4428 151.015 30.4428C152.303 30.4428 153.61 31.1984 153.63 32.5325V32.7032C153.181 32.4497 152.219 32.0743 151.035 32.0743C148.662 32.0743 146.243 33.3499 146.243 35.7305C146.243 37.908 148.187 39.3104 150.373 39.3104C152.044 39.3104 152.966 38.5743 153.545 37.7179H153.63V38.974H156.028V32.7405C156.028 29.8594 153.825 28.2474 150.97 28.2474ZM150.671 37.1524C149.858 37.1524 148.727 36.7592 148.727 35.776C148.727 34.5183 150.138 34.0357 151.36 34.0357C152.453 34.0357 152.966 34.2713 153.63 34.5817C153.435 36.0864 152.109 37.1524 150.671 37.1524ZM164.766 28.6033L161.912 35.6477H161.827L158.876 28.6033H156.198L160.632 38.4475L158.102 43.9254H160.697L167.529 28.6033H164.766ZM142.382 39H144.872V22.75H142.382V39Z" fill="white"/>
<path d="M13.8938 9.80044C13.5027 10.2002 13.2764 10.8226 13.2764 11.6286V40.3781C13.2764 41.1841 13.5027 41.8064 13.8938 42.2062L13.9904 42.2939L30.491 26.1902V25.8099L13.9904 9.7062L13.8938 9.80044Z" fill="url(#paint0_linear_239_10007)"/>
<path d="M35.9853 31.5605L30.4912 26.1899V25.8097L35.992 20.439L36.1151 20.5089L42.6295 24.1278C44.4886 25.1548 44.4886 26.8448 42.6295 27.8783L36.1151 31.4907L35.9853 31.5605Z" fill="url(#paint1_linear_239_10007)"/>
<path d="M36.1156 31.4907L30.4917 25.9998L13.8945 42.206C14.512 42.8397 15.519 42.9161 16.6641 42.2823L36.1156 31.4907Z" fill="url(#paint2_linear_239_10007)"/>
<path d="M36.1156 20.5091L16.6641 9.71751C15.519 9.09025 14.512 9.16663 13.8945 9.80038L30.4917 26L36.1156 20.5091Z" fill="url(#paint3_linear_239_10007)"/>
<defs>
<linearGradient id="paint0_linear_239_10007" x1="29.0259" y1="40.6775" x2="7.21508" y2="18.3381" gradientUnits="userSpaceOnUse">
<stop stop-color="#00A0FF"/>
<stop offset="0.0066" stop-color="#00A1FF"/>
<stop offset="0.2601" stop-color="#00BEFF"/>
<stop offset="0.5122" stop-color="#00D2FF"/>
<stop offset="0.7604" stop-color="#00DFFF"/>
<stop offset="1" stop-color="#00E3FF"/>
</linearGradient>
<linearGradient id="paint1_linear_239_10007" x1="45.0504" y1="25.998" x2="12.8322" y2="25.998" gradientUnits="userSpaceOnUse">
<stop stop-color="#FFE000"/>
<stop offset="0.4087" stop-color="#FFBD00"/>
<stop offset="0.7754" stop-color="#FFA500"/>
<stop offset="1" stop-color="#FF9C00"/>
</linearGradient>
<linearGradient id="paint2_linear_239_10007" x1="33.0575" y1="23.0149" x2="3.48018" y2="-7.27908" gradientUnits="userSpaceOnUse">
<stop stop-color="#FF3A44"/>
<stop offset="1" stop-color="#C31162"/>
</linearGradient>
<linearGradient id="paint3_linear_239_10007" x1="9.71668" y1="51.7709" x2="22.9243" y2="38.2434" gradientUnits="userSpaceOnUse">
<stop stop-color="#32A071"/>
<stop offset="0.0685" stop-color="#2DA771"/>
<stop offset="0.4762" stop-color="#15CF74"/>
<stop offset="0.8009" stop-color="#06E775"/>
<stop offset="1" stop-color="#00F076"/>
</linearGradient>
</defs>
</svg>
